<?xml version="1.0"?>
<svg xmlns="http://www.w3.org/2000/svg" viewBox="0 0 64 64" width="512" height="512"><g id="coding"><path d="M59,14H48V3a1,1,0,0,0-1-1H17a1,1,0,0,0-1,1V14H5a3.009,3.009,0,0,0-3,3V49a3.009,3.009,0,0,0,3,3H24.82l-.67,4H23a1.014,1.014,0,0,0-.8.4l-3,4A1,1,0,0,0,20,62H44a1,1,0,0,0,.8-1.6l-3-4A1.014,1.014,0,0,0,41,56H39.85l-.67-4H59a3.009,3.009,0,0,0,3-3V17A3.009,3.009,0,0,0,59,14ZM18,4H46V24H18ZM40.5,58,42,60H22l1.5-2ZM26.18,56l.67-4h10.3l.67,4ZM60,49a1,1,0,0,1-1,1H5a1,1,0,0,1-1-1V46H60Zm0-5H4V17a1,1,0,0,1,1-1H16v9a1,1,0,0,0,1,1H47a1,1,0,0,0,1-1V16H59a1,1,0,0,1,1,1Z"/><path d="M57,28H45a1,1,0,0,0-1,1v1H36V29a1,1,0,0,0-1-1H29a1,1,0,0,0-1,1v1H20V29a1,1,0,0,0-1-1H7a1,1,0,0,0-1,1v4a1,1,0,0,0,1,1H19a1,1,0,0,0,1-1V32h8v1a1,1,0,0,0,1,1h2v2H29a1,1,0,0,0-1,1v4a1,1,0,0,0,1,1h6a1,1,0,0,0,1-1V37a1,1,0,0,0-1-1H33V34h2a1,1,0,0,0,1-1V32h8v1a1,1,0,0,0,1,1H57a1,1,0,0,0,1-1V29A1,1,0,0,0,57,28ZM18,32H8V30H18Zm16,6v2H30V38Zm0-6H30V30h4Zm22,0H46V30H56Z"/><path d="M26.293,7.293l-6,6a1,1,0,0,0,0,1.414l6,6,1.414-1.414L22.414,14l5.293-5.293Z"/><path d="M37.707,7.293,36.293,8.707,41.586,14l-5.293,5.293,1.414,1.414,6-6a1,1,0,0,0,0-1.414Z"/><rect x="22.513" y="13" width="18.974" height="1.999" transform="translate(8.591 39.923) rotate(-71.547)"/></g></svg>
